<?xml version="1.0" encoding="utf-8"?>
<!-- Generator: Adobe Illustrator 26.3.1, SVG Export Plug-In . SVG Version: 6.00 Build 0)  -->
<svg version="1.1" id="Livello_1" xmlns="http://www.w3.org/2000/svg" xmlns:xlink="http://www.w3.org/1999/xlink" x="0px" y="0px"
	 viewBox="0 0 256 256" style="enable-background:new 0 0 256 256;" xml:space="preserve">
<style type="text/css">
	.st0{fill:url(#SVGID_1_);}
	.st1{fill:none;stroke:#000000;stroke-width:4;stroke-miterlimit:10;}
</style>
<linearGradient id="SVGID_1_" gradientUnits="userSpaceOnUse" x1="63.6675" y1="192.3325" x2="192.3325" y2="63.6675">
	<stop  offset="0" style="stop-color:#FFD400"/>
	<stop  offset="1" style="stop-color:#FFAF00"/>
</linearGradient>
<path class="st0" d="M239,145.6L145.6,239c-9.7,9.7-25.5,9.7-35.3,0L17,145.6c-9.7-9.7-9.7-25.5,0-35.3L110.4,17
	c9.7-9.7,25.5-9.7,35.3,0l93.4,93.4C248.8,120.1,248.8,135.9,239,145.6z"/>
<path class="st1" d="M128,237.8c-4.4,0-8.5-1.7-11.6-4.8L23,139.6c-6.4-6.4-6.4-16.8,0-23.3L116.4,23c3.1-3.1,7.2-4.8,11.6-4.8
	s8.5,1.7,11.6,4.8l93.4,93.4c6.4,6.4,6.4,16.8,0,23.3L139.6,233C136.5,236.1,132.4,237.8,128,237.8z"/>
<path d="M-122.9-125.2c-0.2-0.2-0.3-0.2-0.6,0C-123.6-124.3-123.1-125.4-122.9-125.2z"/>
<path d="M132.9,96.7c-0.2-0.4-0.5-0.2-0.8-0.2C132.4,96.9,132.6,97.2,132.9,96.7z"/>
<path d="M132.7,66.5c-0.2,0.4,0.1,0.4,0.2,0.2C132.8,66.5,132.8,66.5,132.7,66.5z"/>
<path d="M133,71.6c-0.2-0.4-0.3,0.2-0.3,0.4C132.9,71.6,133.2,72,133,71.6z"/>
<path d="M132.7,91.4c0.3,0.4,0.4-0.2,0.1-0.4C132.8,91.4,132.7,91.4,132.7,91.4z"/>
<path d="M132.9,81.5c0,0.2,0.3,0.6,0.3,0.2C133.2,81.5,132.9,81.3,132.9,81.5z"/>
<path d="M132.9,90.7c0.1,0.2,0.3,0.9,0.4,0.4C133.3,90.3,133,90.3,132.9,90.7z"/>
<path d="M133.3,92.9c-0.8,0,0.1,1.3,0,0.6C133.5,93.3,133.8,93.1,133.3,92.9z"/>
<path d="M134,95c-0.1-0.6-1.4-0.9-0.8,0.2C133.4,93.9,133.6,96.3,134,95z"/>
<path d="M133.6,69.2c-0.3-0.2-0.3-0.2-0.1-0.9C133.1,68.6,133,69.7,133.6,69.2z"/>
<path d="M133.3,66.5c0.2,0.4,0.2,0.4,0.5,0.4C133.9,66.2,133.5,66.5,133.3,66.5z"/>
<path d="M134,63.7c-0.2,0.4,0,0.4,0.2,0C134.1,63.7,134,63.7,134,63.7z"/>
<path d="M134.1,91.6c0.1,0.2,0.6,0.6,0.8,0.2C134.9,91.4,134.3,91.1,134.1,91.6z"/>
<path d="M134.6,99.7c-0.7,0.9,0.6,2.1,0.7,0.4C135,99.9,134.8,99.9,134.6,99.7z"/>
<path d="M134.9,63.4c-0.5-1.1-0.1,0.9,0,1.5C134.8,64.3,135,63.9,134.9,63.4z"/>
<path d="M135.1,79.8c0-0.9-0.8,0.2-0.3,0.4C134.9,80.2,135.1,80,135.1,79.8z"/>
<path d="M134.7,80.6c0.1,0.2,0.3,0.9,0.5,0.4C135,80.8,134.8,80.4,134.7,80.6z"/>
<path d="M134.9,91.1c0,0,0.1,0.2,0.2,0.2C135.1,90.9,134.8,90.3,134.9,91.1z"/>
<path d="M135.1,82.6c0.1,0.4,0.3,0.4,0.4,0C135.4,82.6,135.2,82.1,135.1,82.6z"/>
<path d="M135.5,85.8c0.1,0-0.2,0-0.3,0C135.2,86.2,135.5,85.8,135.5,85.8z"/>
<path d="M135.6,97.2c0-0.4-0.2-0.2-0.4,0C135.3,97.2,135.6,97.8,135.6,97.2z"/>
<path d="M135.4,93.7c0,0.9,0.5,0.4,0.5,0C135.4,92.9,135.8,94.6,135.4,93.7z"/>
<path d="M136.1,98.2c0-0.4-0.7,0.2-0.8,0.6C135.6,98.9,135.9,98.7,136.1,98.2z"/>
<path d="M135.9,102.7c-0.2,0.4-0.4,0-0.4,0.4C135.7,103,136.1,103,135.9,102.7z"/>
<path d="M135.8,83.8c-0.2,0.4-0.3,0.6,0,0.9C135.9,84.3,135.8,84.3,135.8,83.8z"/>
<path d="M135.6,95c0.2,0,0.6,0,0.7,0C136.2,94.1,135.8,95,135.6,95z"/>
<path d="M135.7,104c0,0.2-0.1,0.2-0.1,0.6C135.6,105.1,136,104,135.7,104z"/>
<path d="M135.7,68c0.4,0.4,0.3,1.7,0.8,1.7C136.4,69.2,135.9,68.2,135.7,68z"/>
<path d="M137.4,80.6c-2.3,0.4-1.8,1.5,0.3,0.2C137.5,80.8,137.4,80.6,137.4,80.6z"/>
<path d="M136.1,71c-0.4,0,0,1.3,0.1,0.4C136.1,71,136.1,71,136.1,71z"/>
<path d="M136,59.2c-0.1,0.6,0.4,0.4,0.5,0.4C136.8,59.2,136.3,59.2,136,59.2z"/>
<path d="M136.9,82.3c-1.8-0.4,0.3,0.4-0.5,0.6C136.6,83,137.2,82.8,136.9,82.3z"/>
<path d="M136.5,78.9c-0.1-0.6-0.3,0.6-0.2,1.1C136.6,79.5,136.3,79.5,136.5,78.9z"/>
<path d="M136.6,60.4c0,0.4-0.4,1.1,0,1.1C136.7,61.1,137,60.2,136.6,60.4z"/>
<path d="M136.6,64.3c0,0.2-0.1,0.2-0.2,0.2C136.6,65.2,137,64.7,136.6,64.3z"/>
<path d="M137.6,65.8c0.2,0-0.6-0.4-0.5,0.2C137.3,65.8,137.5,65.8,137.6,65.8z"/>
<path d="M138.8,58.7c-0.2,1.9-1.3,0.2-1.4,1.5C138.7,60,138.4,61.1,138.8,58.7z"/>
<path d="M137.6,70.1c0.1-0.2,0.2-0.6,0.3-0.6C137.6,69,137.1,69.9,137.6,70.1z"/>
<path d="M137.5,79.8c0.2-0.4,0.3-0.6,0.5-0.6C137.8,78.9,137,79.3,137.5,79.8z"/>
<path d="M137.7,62.8c-0.2,0.6,0.5,1.3,0.7,0.6C138.1,63,138,63.7,137.7,62.8z"/>
<path d="M138.3,82.8c-0.1,0-0.6,0.9-0.3,1.1C138,83.4,138.2,83.2,138.3,82.8z"/>
<path d="M138.2,104c0.1,0.2,0.2,0.2,0.4,0.2C138.4,103.8,138.3,104,138.2,104z"/>
<path d="M138.7,93.3c0-0.2-0.1-0.2-0.2-0.4C138.3,93.1,138.6,93.7,138.7,93.3z"/>
<path d="M139.1,61.7c0.4,1.3,0.6,0,0.3-0.4c-0.3-0.2-0.7,0-0.8,0.4C138.8,61.5,139.1,61.1,139.1,61.7z"/>
<path d="M139.1,60c-0.2,0,0.1,0.4,0.3,0.2C139.3,60,139.2,60,139.1,60z"/>
<path d="M140,91.1c0.3-0.2-0.1-0.6-0.4-0.2C139.7,90.9,139.8,91.1,140,91.1z"/>
<path d="M140.2,90.1c0.2-0.9-0.4-0.6-0.5,0C139.8,90.5,140,89.9,140.2,90.1z"/>
<path d="M140.7,61.9c-0.1,0.2-0.2,0.4-0.3,0.6C142.4,60.7,138.2,61.3,140.7,61.9z"/>
<path d="M140,65.6c0.4,0,0-0.9,0.4-0.6C140.2,63.9,139.9,64.3,140,65.6z"/>
<path d="M140.3,60.7c0.3,0.4,0.6,0.6,0.9,0.2C140.9,60.4,140.7,60.4,140.3,60.7z"/>
<path d="M141.1,59.6c-0.1,0.2-0.8,0.4-0.6,0.9C140.6,60.2,141.3,60,141.1,59.6z"/>
<path d="M140.7,80.4c-0.1,0.2-0.1,0.2-0.2,0.2C140.6,81.1,141.2,80.4,140.7,80.4z"/>
<path d="M142,57.9c0.2-0.4-0.2-1.1-0.4-0.6C141.8,57.6,141.7,58.3,142,57.9z"/>
<path d="M142.1,96.5c-0.2-0.4-0.2,0-0.4,0C141.8,96.7,142,96.7,142.1,96.5z"/>
<path d="M142.3,64.7c0.1,0,0.7,0.4,0.7,0C143,64.1,142.1,64.3,142.3,64.7z"/>
<path d="M143.2,61.3c-1.3,0,0.7,1.5,1.1,1.5C145.6,62.6,142.8,62.2,143.2,61.3z"/>
<path d="M142.8,57.2c0.2,0.4,0.4,0.2,0.6,0C143.2,56.8,143,57.4,142.8,57.2z"/>
<path d="M143.8,63.7c-0.4-0.4-0.4,0-0.1,0.4C143.7,63.9,143.7,63.7,143.8,63.7z"/>
<path d="M143.3,100.4c0.3,0.2,0.3,0.4,0.5,0.4C143.5,100.6,143.5,100.4,143.3,100.4z"/>
<path d="M144.6,101.9c0.1-0.6,0.1-0.6-0.2-0.6C144.2,101.4,144.3,101.4,144.6,101.9z"/>
<path d="M144.7,98.7c-0.3,0.9,0.2,0.9,0.2,0C145.1,98.4,144.7,98.7,144.7,98.7z"/>
<path d="M145.5,103.4c-0.3-0.9-0.2,0.2-0.5,0.4C145.4,103.8,145.4,103.6,145.5,103.4z"/>
<path d="M145.9,98.9c-0.2-0.9-1.3,1.7-0.3,1.9c0.5,0.4,1.2-0.6,0.4-0.9C146.1,99.7,145.3,99.3,145.9,98.9z"/>
<path d="M146,103c1.2,0.6,0.3-2.1-0.4-1.7C145.3,101.4,145.9,103.4,146,103z"/>
<path d="M146.1,100.4c-0.1,0-0.1-0.2-0.2-0.2C146.2,100.2,146.1,99.5,146.1,100.4z"/>
<path d="M147.2,102.7c-0.1-0.6-0.2,0.4-0.4,0.4C146.9,103.4,147.1,103,147.2,102.7z"/>
<path d="M148.4,100.8c1.6,0.4-1.4-0.6,0-1.7C147.4,99.1,147.2,101,148.4,100.8z"/>
<path d="M147.8,103.2c0,0.2-0.2,0.6,0,0.9C147.8,103.8,148,103.6,147.8,103.2z"/>
<path d="M147.8,62.8c0.1,0.2,0.3,0.4,0.2,0.2C148,62.8,147.8,62.6,147.8,62.8z"/>
<path d="M149.5,63.2c0-0.2-1,0-1.2,0.6C148.5,63.9,149.2,63.9,149.5,63.2z"/>
<path d="M149.8,99.9c-0.1,0.2-0.3,0.2-0.4,0.2C148.8,100.8,150.1,100.4,149.8,99.9z"/>
<path d="M150.4,103c-0.2,0-0.3-0.4-0.5,0C150.1,103.4,150.2,103.2,150.4,103z"/>
<path d="M153,104.9c-0.5,1.7,0.5-0.4,0.3,0.6c0.7,0.6,0.8-1.5,1.5-0.2c0.1,0.6,0.3-0.4,0.1-0.4c-0.5,0.2-0.1-0.2-0.2-0.6
	c-0.5,0.9-1.3,0.9-1.1-0.9c-0.5,0.6-1.6,0-0.7-1.1c-0.4,1.9,1-0.4,1.3,0.6c0.8,0.9,0.8-1.5,0-1.1c-1.7,1.9-1.3-2.4-1.8,0.9
	c-0.8-3.6-0.3-0.4-1.7-1.7c-0.6-0.9,0.7-0.2-0.3,0.4c0.5,0.6,0.8,1.3,1.3,1.9c0.1-1.7,0.6-0.6,0.8,0.2
	C153,101.9,153.6,104.7,153,104.9z"/>
<path d="M151.3,99.5c-0.2,0.6,0.1,0.4,0.3,0.2C151.4,99.5,151.4,99.5,151.3,99.5z"/>
<path d="M152.6,65.6c0-0.4-0.9,0.4-0.7,0.6C152.2,65.8,152.6,66.5,152.6,65.6z"/>
<path d="M152.1,63.2c-0.2,0.4,0.1,0.4,0.2,0.9C152.6,63.7,152.3,63.7,152.1,63.2z"/>
<path d="M152.6,67.3c0,0.4-0.2,0.2,0,0.6C152.7,67.5,152.8,67.5,152.6,67.3z"/>
<path d="M153.1,66c0.1,0.2,0.4,0.6,0.5,0.2C153.5,66.2,153.1,65.4,153.1,66z"/>
<path d="M153.2,104.5c0.2,0,0.3,0.2,0.5,0.4C153.4,104.9,153.2,105.1,153.2,104.5z"/>
<path d="M153.8,68.6c-0.2,0.4,0.3,0.6,0.5,0.6C154.1,68.8,153.9,68.8,153.8,68.6z"/>
<path d="M155.4,79.3c-1,3,1.1-0.6,0.3,0.2c-0.5-0.6-0.4-0.9-0.9-0.9C153,79.3,154.3,78.7,155.4,79.3z"/>
<path d="M154.5,67.3c0.1,0.4,0.3-0.2,0.1-0.6C154.5,67.1,154.5,67.3,154.5,67.3z"/>
<path d="M155.7,77.8c-0.1-0.6-0.7-1.1-0.3-0.2C154.6,77.6,155.4,78.5,155.7,77.8z"/>
<path d="M155.9,67.5c-0.3-0.4,0.2-1.1,0.1-1.1c-0.8-1.1-0.8-0.9-0.5,0.4c-0.7,0.4-0.1,1.5-0.1,0.4C155.5,67.3,155.9,68.2,155.9,67.5
	z"/>
<path d="M155.7,57c0.4,0.6,0.2-0.6-0.2-0.6C155.2,55.9,155.3,57,155.7,57z"/>
<path d="M155.3,68.8c0.1,0,0.2,0,0.4,0C156.1,68.4,155.1,68,155.3,68.8z"/>
<path d="M155.9,100.4c-0.3,0.6-0.5,0.4-0.2,1.3C156.1,102.3,156.4,100.6,155.9,100.4z"/>
<path d="M156.8,65.2c-0.6-2.1-1.9,0-0.3,0.4C156.4,65.6,156.8,65.2,156.8,65.2z"/>
<path d="M156.3,68c-0.1-0.4-0.4,0-0.5,0C156,68,156.1,68.4,156.3,68z"/>
<path d="M155.9,76.8c0.3-0.2,0.2-1.5,0-1.7C155.9,75.7,156,76.3,155.9,76.8z"/>
<path d="M156.8,103c-0.4-0.2-0.7-0.2-0.9-0.2C156.1,103.6,156.4,103.6,156.8,103z"/>
<path d="M157.3,103.6c0.5-1.1-0.3-3.2-0.2-0.9c0.8,0.2-0.7,1.1,0.1,1.5C155.7,104.7,156.6,105.3,157.3,103.6z"/>
<path d="M157.5,79.3c-0.2,0-0.4-0.2-0.6,0C157.2,79.8,157.4,79.8,157.5,79.3z"/>
<path d="M158.6,66.7c1.2-0.6-1.3-1.7-1.7-0.2c-0.1,0.6,1.6,1.1,0.5-0.2C157.7,66,158.3,66.7,158.6,66.7z"/>
<path d="M156.9,64.1c0,0.6,0.8-0.2,0.5,0.6C158.1,65.4,157.5,63.7,156.9,64.1z"/>
<path d="M158,71c1.5-0.9-0.5-1.3-0.8-1.3c-0.2,1.3,0.5,0.9,1,0.6C158.1,70.5,158.1,70.7,158,71z"/>
<path d="M158.7,68c0.9-2.4-0.8,0-1.4,0.2c0.7-0.2,0.8,1.5,1.3,1.5C159.6,67.3,158.7,69,158.7,68z"/>
<path d="M157.6,76.1c-0.3,0,0.2,0.9,0.2,0.9C158.1,77,157.6,76.1,157.6,76.1z"/>
<path d="M158.4,103.6c0.2,0.2,0.4-1.3,0.9-0.6C159.4,102.1,158,103,158.4,103.6z"/>
<path d="M159.1,70.7c-0.2,0.4,0,0.2,0.2,0.2C159.2,70.7,159.1,70.7,159.1,70.7z"/>
<path d="M159.6,68.8c-0.2-0.9-0.7,1.1-0.2,0.9c0.2,0,0.1,0,0.1,0.4C161.6,67.1,159.5,70.1,159.6,68.8z"/>
<path d="M159.7,103.6c-0.4,0.6-0.8,0.4-0.1,0.9C159.9,104.7,159.8,103.8,159.7,103.6z"/>
<path d="M160,64.5c-0.1,0.2-0.2,0.2-0.4,0.2C159.5,65.6,160.4,64.9,160,64.5z"/>
<path d="M84.3,180.1c-0.2-0.4-0.5-0.2-0.8-0.2C83.8,180.3,84,180.6,84.3,180.1z"/>
<path d="M84.1,149.9c-0.2,0.4,0.1,0.4,0.2,0.2C84.2,149.9,84.2,149.9,84.1,149.9z"/>
<path d="M84.4,155c-0.2-0.4-0.3,0.2-0.3,0.4C84.3,155,84.6,155.4,84.4,155z"/>
<path d="M84.1,174.8c0.3,0.4,0.4-0.2,0.1-0.4C84.2,174.8,84.1,174.8,84.1,174.8z"/>
<path d="M84.3,164.9c0,0.2,0.3,0.6,0.3,0.2C84.6,164.9,84.3,164.7,84.3,164.9z"/>
<path d="M84.3,174.1c0.1,0.2,0.3,0.9,0.4,0.4C84.7,173.7,84.4,173.7,84.3,174.1z"/>
<path d="M84.7,176.3c-0.8,0,0.1,1.3,0,0.6C84.9,176.7,85.2,176.5,84.7,176.3z"/>
<path d="M85.4,178.4c-0.1-0.6-1.4-0.9-0.8,0.2C84.8,177.3,85,179.7,85.4,178.4z"/>
<path d="M85,152.6c-0.3-0.2-0.3-0.2-0.1-0.9C84.5,152,84.4,153.1,85,152.6z"/>
<path d="M84.7,149.9c0.2,0.4,0.2,0.4,0.5,0.4C85.3,149.6,84.9,149.9,84.7,149.9z"/>
<path d="M85.4,147.1c-0.2,0.4,0,0.4,0.2,0C85.5,147.1,85.4,147.1,85.4,147.1z"/>
<path d="M85.5,175c0.1,0.2,0.6,0.6,0.8,0.2C86.3,174.8,85.7,174.5,85.5,175z"/>
<path d="M86,183.1c-0.7,0.9,0.6,2.1,0.7,0.4C86.4,183.3,86.2,183.3,86,183.1z"/>
<path d="M86.3,146.8c-0.5-1.1-0.1,0.9,0,1.5C86.2,147.7,86.4,147.3,86.3,146.8z"/>
<path d="M86.5,163.2c0-0.9-0.8,0.2-0.3,0.4C86.3,163.6,86.5,163.4,86.5,163.2z"/>
<path d="M86.1,164c0.1,0.2,0.3,0.9,0.5,0.4C86.4,164.2,86.2,163.8,86.1,164z"/>
<path d="M86.3,174.5c0,0,0.1,0.2,0.2,0.2C86.5,174.3,86.2,173.7,86.3,174.5z"/>
<path d="M86.5,166c0.1,0.4,0.3,0.4,0.4,0C86.8,166,86.6,165.5,86.5,166z"/>
<path d="M86.9,169.2c0.1,0-0.2,0-0.3,0C86.6,169.6,86.9,169.2,86.9,169.2z"/>
<path d="M87,180.6c0-0.4-0.2-0.2-0.4,0C86.7,180.6,87,181.2,87,180.6z"/>
<path d="M86.8,177.1c0,0.9,0.5,0.4,0.5,0C86.8,176.3,87.2,178,86.8,177.1z"/>
<path d="M87.5,181.6c0-0.4-0.7,0.2-0.8,0.6C87,182.3,87.3,182.1,87.5,181.6z"/>
<path d="M87.3,186.1c-0.2,0.4-0.4,0-0.4,0.4C87.1,186.4,87.5,186.4,87.3,186.1z"/>
<path d="M87.2,167.2c-0.2,0.4-0.3,0.6,0,0.9C87.3,167.7,87.2,167.7,87.2,167.2z"/>
<path d="M87,178.4c0.2,0,0.6,0,0.7,0C87.6,177.5,87.2,178.4,87,178.4z"/>
<path d="M87.1,187.4c0,0.2-0.1,0.2-0.1,0.6C87,188.5,87.4,187.4,87.1,187.4z"/>
<path d="M87.1,151.4c0.4,0.4,0.3,1.7,0.8,1.7C87.8,152.6,87.3,151.6,87.1,151.4z"/>
<path d="M88.8,164c-2.3,0.4-1.8,1.5,0.3,0.2C88.9,164.2,88.8,164,88.8,164z"/>
<path d="M87.5,154.4c-0.4,0,0,1.3,0.1,0.4C87.5,154.4,87.5,154.4,87.5,154.4z"/>
<path d="M87.4,142.6c-0.1,0.6,0.4,0.4,0.5,0.4C88.2,142.6,87.7,142.6,87.4,142.6z"/>
<path d="M88.3,165.7c-1.8-0.4,0.3,0.4-0.5,0.6C88,166.4,88.6,166.2,88.3,165.7z"/>
<path d="M87.9,162.3c-0.1-0.6-0.3,0.6-0.2,1.1C88,162.9,87.7,162.9,87.9,162.3z"/>
<path d="M88,143.8c0,0.4-0.4,1.1,0,1.1C88.1,144.5,88.4,143.6,88,143.8z"/>
<path d="M88,147.7c0,0.2-0.1,0.2-0.2,0.2C88,148.6,88.4,148.1,88,147.7z"/>
<path d="M89,149.2c0.2,0-0.6-0.4-0.5,0.2C88.7,149.2,88.9,149.2,89,149.2z"/>
<path d="M90.2,142.1c-0.2,1.9-1.3,0.2-1.4,1.5C90.1,143.4,89.8,144.5,90.2,142.1z"/>
<path d="M89,153.5c0.1-0.2,0.2-0.6,0.3-0.6C89,152.4,88.5,153.3,89,153.5z"/>
<path d="M88.9,163.2c0.2-0.4,0.3-0.6,0.5-0.6C89.2,162.3,88.4,162.7,88.9,163.2z"/>
<path d="M89.1,146.2c-0.2,0.6,0.5,1.3,0.7,0.6C89.5,146.4,89.4,147.1,89.1,146.2z"/>
<path d="M89.7,166.2c-0.1,0-0.6,0.9-0.3,1.1C89.4,166.8,89.6,166.6,89.7,166.2z"/>
<path d="M89.6,187.4c0.1,0.2,0.2,0.2,0.4,0.2C89.8,187.2,89.7,187.4,89.6,187.4z"/>
<path d="M90.1,176.7c0-0.2-0.1-0.2-0.2-0.4C89.7,176.5,90,177.1,90.1,176.7z"/>
<path d="M90.5,145.1c0.4,1.3,0.6,0,0.3-0.4c-0.3-0.2-0.7,0-0.8,0.4C90.2,144.9,90.5,144.5,90.5,145.1z"/>
<path d="M90.5,143.4c-0.2,0,0.1,0.4,0.3,0.2C90.7,143.4,90.6,143.4,90.5,143.4z"/>
<path d="M91.4,174.5c0.3-0.2-0.1-0.6-0.4-0.2C91.1,174.3,91.2,174.5,91.4,174.5z"/>
<path d="M91.6,173.5c0.2-0.9-0.4-0.6-0.5,0C91.2,173.9,91.4,173.3,91.6,173.5z"/>
<path d="M92.1,145.3c-0.1,0.2-0.2,0.4-0.3,0.6C93.8,144.1,89.6,144.7,92.1,145.3z"/>
<path d="M91.4,149c0.4,0,0-0.9,0.4-0.6C91.6,147.3,91.3,147.7,91.4,149z"/>
<path d="M91.7,144.1c0.3,0.4,0.6,0.6,0.9,0.2C92.3,143.8,92.1,143.8,91.7,144.1z"/>
<path d="M92.5,143c-0.1,0.2-0.8,0.4-0.6,0.9C92,143.6,92.7,143.4,92.5,143z"/>
<path d="M92.1,163.8C92,164,92,164,91.9,164C92,164.5,92.6,163.8,92.1,163.8z"/>
<path d="M93.4,141.3c0.2-0.4-0.2-1.1-0.4-0.6C93.2,141,93.1,141.7,93.4,141.3z"/>
<path d="M93.5,179.9c-0.2-0.4-0.2,0-0.4,0C93.2,180.1,93.4,180.1,93.5,179.9z"/>
<path d="M93.7,148.1c0.1,0,0.7,0.4,0.7,0C94.4,147.5,93.5,147.7,93.7,148.1z"/>
<path d="M94.6,144.7c-1.3,0,0.7,1.5,1.1,1.5C97,146,94.2,145.6,94.6,144.7z"/>
<path d="M94.2,140.6c0.2,0.4,0.4,0.2,0.6,0C94.6,140.2,94.4,140.8,94.2,140.6z"/>
<path d="M95.2,147.1c-0.4-0.4-0.4,0-0.1,0.4C95.1,147.3,95.1,147.1,95.2,147.1z"/>
<path d="M94.7,183.8c0.3,0.2,0.3,0.4,0.5,0.4C94.9,184,94.9,183.8,94.7,183.8z"/>
<path d="M96,185.3c0.1-0.6,0.1-0.6-0.2-0.6C95.6,184.8,95.7,184.8,96,185.3z"/>
<path d="M96.1,182.1c-0.3,0.9,0.2,0.9,0.2,0C96.5,181.8,96.1,182.1,96.1,182.1z"/>
<path d="M96.9,186.8c-0.3-0.9-0.2,0.2-0.5,0.4C96.8,187.2,96.8,187,96.9,186.8z"/>
<path d="M97.3,182.3c-0.2-0.9-1.3,1.7-0.3,1.9c0.5,0.4,1.2-0.6,0.4-0.9C97.5,183.1,96.7,182.7,97.3,182.3z"/>
<path d="M97.4,186.4c1.2,0.6,0.3-2.1-0.4-1.7C96.7,184.8,97.3,186.8,97.4,186.4z"/>
<path d="M97.5,183.8c-0.1,0-0.1-0.2-0.2-0.2C97.6,183.6,97.5,182.9,97.5,183.8z"/>
<path d="M98.6,186.1c-0.1-0.6-0.2,0.4-0.4,0.4C98.3,186.8,98.5,186.4,98.6,186.1z"/>
<path d="M99.8,184.2c1.6,0.4-1.4-0.6,0-1.7C98.8,182.5,98.6,184.4,99.8,184.2z"/>
<path d="M99.2,186.6c0,0.2-0.2,0.6,0,0.9C99.2,187.2,99.4,187,99.2,186.6z"/>
<path d="M99.2,146.2c0.1,0.2,0.3,0.4,0.2,0.2C99.4,146.2,99.2,146,99.2,146.2z"/>
<path d="M100.9,146.6c0-0.2-1,0-1.2,0.6C99.9,147.3,100.6,147.3,100.9,146.6z"/>
<path d="M101.2,183.3c-0.1,0.2-0.3,0.2-0.4,0.2C100.2,184.2,101.5,183.8,101.2,183.3z"/>
<path d="M101.8,186.4c-0.2,0-0.3-0.4-0.5,0C101.5,186.8,101.6,186.6,101.8,186.4z"/>
<path d="M104.4,188.3c-0.5,1.7,0.5-0.4,0.3,0.6c0.7,0.6,0.8-1.5,1.5-0.2c0.1,0.6,0.3-0.4,0.1-0.4c-0.5,0.2-0.1-0.2-0.2-0.6
	c-0.5,0.9-1.3,0.9-1.1-0.9c-0.5,0.6-1.6,0-0.7-1.1c-0.4,1.9,1-0.4,1.3,0.6c0.8,0.9,0.8-1.5,0-1.1c-1.7,1.9-1.3-2.4-1.8,0.9
	c-0.8-3.6-0.3-0.4-1.7-1.7c-0.6-0.9,0.7-0.2-0.3,0.4c0.5,0.6,0.8,1.3,1.3,1.9c0.1-1.7,0.6-0.6,0.8,0.2
	C104.4,185.3,105,188.1,104.4,188.3z"/>
<path d="M102.7,182.9c-0.2,0.6,0.1,0.4,0.3,0.2C102.8,182.9,102.8,182.9,102.7,182.9z"/>
<path d="M104,149c0-0.4-0.9,0.4-0.7,0.6C103.6,149.2,104,149.9,104,149z"/>
<path d="M103.5,146.6c-0.2,0.4,0.1,0.4,0.2,0.9C104,147.1,103.7,147.1,103.5,146.6z"/>
<path d="M104,150.7c0,0.4-0.2,0.2,0,0.6C104.1,150.9,104.2,150.9,104,150.7z"/>
<path d="M104.5,149.4c0.1,0.2,0.4,0.6,0.5,0.2C104.9,149.6,104.5,148.8,104.5,149.4z"/>
<path d="M104.6,187.9c0.2,0,0.3,0.2,0.5,0.4C104.8,188.3,104.6,188.5,104.6,187.9z"/>
<path d="M105.2,152c-0.2,0.4,0.3,0.6,0.5,0.6C105.5,152.2,105.3,152.2,105.2,152z"/>
<path d="M106.8,162.7c-1,3,1.1-0.6,0.3,0.2c-0.5-0.6-0.4-0.9-0.9-0.9C104.4,162.7,105.7,162.1,106.8,162.7z"/>
<path d="M105.9,150.7c0.1,0.4,0.3-0.2,0.1-0.6C105.9,150.5,105.9,150.7,105.9,150.7z"/>
<path d="M107.1,161.2c-0.1-0.6-0.7-1.1-0.3-0.2C106,161,106.8,161.9,107.1,161.2z"/>
<path d="M107.3,150.9c-0.3-0.4,0.2-1.1,0.1-1.1c-0.8-1.1-0.8-0.9-0.5,0.4c-0.7,0.4-0.1,1.5-0.1,0.4
	C106.9,150.7,107.3,151.6,107.3,150.9z"/>
<path d="M107.1,140.4c0.4,0.6,0.2-0.6-0.2-0.6C106.6,139.3,106.7,140.4,107.1,140.4z"/>
<path d="M106.7,152.2c0.1,0,0.2,0,0.4,0C107.5,151.8,106.5,151.4,106.7,152.2z"/>
<path d="M107.3,183.8c-0.3,0.6-0.5,0.4-0.2,1.3C107.5,185.7,107.8,184,107.3,183.8z"/>
<path d="M108.2,148.6c-0.6-2.1-1.9,0-0.3,0.4C107.8,149,108.2,148.6,108.2,148.6z"/>
<path d="M107.7,151.4c-0.1-0.4-0.4,0-0.5,0C107.4,151.4,107.5,151.8,107.7,151.4z"/>
<path d="M107.3,160.2c0.3-0.2,0.2-1.5,0-1.7C107.3,159.1,107.4,159.7,107.3,160.2z"/>
<path d="M108.2,186.4c-0.4-0.2-0.7-0.2-0.9-0.2C107.5,187,107.8,187,108.2,186.4z"/>
<path d="M108.7,187c0.5-1.1-0.3-3.2-0.2-0.9c0.8,0.2-0.7,1.1,0.1,1.5C107.1,188.1,108,188.7,108.7,187z"/>
<path d="M108.9,162.7c-0.2,0-0.4-0.2-0.6,0C108.6,163.2,108.8,163.2,108.9,162.7z"/>
<path d="M110,150.1c1.2-0.6-1.3-1.7-1.7-0.2c-0.1,0.6,1.6,1.1,0.5-0.2C109.1,149.4,109.7,150.1,110,150.1z"/>
<path d="M108.3,147.5c0,0.6,0.8-0.2,0.5,0.6C109.5,148.8,108.9,147.1,108.3,147.5z"/>
<path d="M109.4,154.4c1.5-0.9-0.5-1.3-0.8-1.3c-0.2,1.3,0.5,0.9,1,0.6C109.5,153.9,109.5,154.1,109.4,154.4z"/>
<path d="M110.1,151.4c0.9-2.4-0.8,0-1.4,0.2c0.7-0.2,0.8,1.5,1.3,1.5C111,150.7,110.1,152.4,110.1,151.4z"/>
<path d="M109,159.5c-0.3,0,0.2,0.9,0.2,0.9C109.5,160.4,109,159.5,109,159.5z"/>
<path d="M109.8,187c0.2,0.2,0.4-1.3,0.9-0.6C110.8,185.5,109.4,186.4,109.8,187z"/>
<path d="M110.5,154.1c-0.2,0.4,0,0.2,0.2,0.2C110.6,154.1,110.5,154.1,110.5,154.1z"/>
<path d="M111,152.2c-0.2-0.9-0.7,1.1-0.2,0.9c0.2,0,0.1,0,0.1,0.4C113,150.5,110.9,153.5,111,152.2z"/>
<path d="M111.1,187c-0.4,0.6-0.8,0.4-0.1,0.9C111.3,188.1,111.2,187.2,111.1,187z"/>
<path d="M111.4,147.9c-0.1,0.2-0.2,0.2-0.4,0.2C110.9,149,111.8,148.3,111.4,147.9z"/>
<path d="M133.5,175.6c-0.2-0.4-0.5-0.2-0.8-0.2C133,175.8,133.2,176.1,133.5,175.6z"/>
<path d="M133.3,145.4c-0.2,0.4,0.1,0.4,0.2,0.2C133.4,145.4,133.4,145.4,133.3,145.4z"/>
<path d="M133.6,150.5c-0.2-0.4-0.3,0.2-0.3,0.4C133.5,150.5,133.8,150.9,133.6,150.5z"/>
<path d="M133.3,170.3c0.3,0.4,0.4-0.2,0.1-0.4C133.4,170.3,133.3,170.3,133.3,170.3z"/>
<path d="M133.5,160.4c0,0.2,0.3,0.6,0.3,0.2C133.8,160.4,133.5,160.2,133.5,160.4z"/>
<path d="M133.5,169.6c0.1,0.2,0.3,0.9,0.4,0.4C133.9,169.2,133.6,169.2,133.5,169.6z"/>
<path d="M133.9,171.8c-0.8,0,0.1,1.3,0,0.6C134.1,172.2,134.4,172,133.9,171.8z"/>
<path d="M134.6,173.9c-0.1-0.6-1.4-0.9-0.8,0.2C134,172.8,134.2,175.2,134.6,173.9z"/>
<path d="M134.2,148.1c-0.3-0.2-0.3-0.2-0.1-0.9C133.7,147.5,133.6,148.6,134.2,148.1z"/>
<path d="M133.9,145.4c0.2,0.4,0.2,0.4,0.5,0.4C134.5,145.1,134.1,145.4,133.9,145.4z"/>
<path d="M134.6,142.6c-0.2,0.4,0,0.4,0.2,0C134.7,142.6,134.6,142.6,134.6,142.6z"/>
<path d="M134.7,170.5c0.1,0.2,0.6,0.6,0.8,0.2C135.5,170.3,134.9,170,134.7,170.5z"/>
<path d="M135.2,178.6c-0.7,0.9,0.6,2.1,0.7,0.4C135.6,178.8,135.4,178.8,135.2,178.6z"/>
<path d="M135.5,142.3c-0.5-1.1-0.1,0.9,0,1.5C135.4,143.2,135.6,142.8,135.5,142.3z"/>
<path d="M135.7,158.7c0-0.9-0.8,0.2-0.3,0.4C135.5,159.1,135.7,158.9,135.7,158.7z"/>
<path d="M135.3,159.5c0.1,0.2,0.3,0.9,0.5,0.4C135.6,159.7,135.4,159.3,135.3,159.5z"/>
<path d="M135.5,170c0,0,0.1,0.2,0.2,0.2C135.7,169.8,135.4,169.2,135.5,170z"/>
<path d="M135.7,161.5c0.1,0.4,0.3,0.4,0.4,0C136,161.5,135.8,161,135.7,161.5z"/>
<path d="M136.1,164.7c0.1,0-0.2,0-0.3,0C135.8,165.1,136.1,164.7,136.1,164.7z"/>
<path d="M136.2,176.1c0-0.4-0.2-0.2-0.4,0C135.9,176.1,136.2,176.7,136.2,176.1z"/>
<path d="M136,172.6c0,0.9,0.5,0.4,0.5,0C136,171.8,136.4,173.5,136,172.6z"/>
<path d="M136.7,177.1c0-0.4-0.7,0.2-0.8,0.6C136.2,177.8,136.5,177.6,136.7,177.1z"/>
<path d="M136.5,181.6c-0.2,0.4-0.4,0-0.4,0.4C136.3,181.9,136.7,181.9,136.5,181.6z"/>
<path d="M136.4,162.7c-0.2,0.4-0.3,0.6,0,0.9C136.5,163.2,136.4,163.2,136.4,162.7z"/>
<path d="M136.2,173.9c0.2,0,0.6,0,0.7,0C136.8,173,136.4,173.9,136.2,173.9z"/>
<path d="M136.3,182.9c0,0.2-0.1,0.2-0.1,0.6C136.2,184,136.6,182.9,136.3,182.9z"/>
<path d="M136.3,146.9c0.4,0.4,0.3,1.7,0.8,1.7C137,148.1,136.5,147.1,136.3,146.9z"/>
<path d="M138,159.5c-2.3,0.4-1.8,1.5,0.3,0.2C138.1,159.7,138,159.5,138,159.5z"/>
<path d="M136.7,149.9c-0.4,0,0,1.3,0.1,0.4C136.7,149.9,136.7,149.9,136.7,149.9z"/>
<path d="M136.6,138.1c-0.1,0.6,0.4,0.4,0.5,0.4C137.4,138.1,136.9,138.1,136.6,138.1z"/>
<path d="M137.5,161.2c-1.8-0.4,0.3,0.4-0.5,0.6C137.2,161.9,137.8,161.7,137.5,161.2z"/>
<path d="M137.1,157.8c-0.1-0.6-0.3,0.6-0.2,1.1C137.2,158.4,136.9,158.4,137.1,157.8z"/>
<path d="M137.2,139.3c0,0.4-0.4,1.1,0,1.1C137.3,140,137.6,139.1,137.2,139.3z"/>
<path d="M137.2,143.2c0,0.2-0.1,0.2-0.2,0.2C137.2,144.1,137.6,143.6,137.2,143.2z"/>
<path d="M138.2,144.7c0.2,0-0.6-0.4-0.5,0.2C137.9,144.7,138.1,144.7,138.2,144.7z"/>
<path d="M139.4,137.6c-0.2,1.9-1.3,0.2-1.4,1.5C139.3,138.9,139,140,139.4,137.6z"/>
<path d="M138.2,149c0.1-0.2,0.2-0.6,0.3-0.6C138.2,147.9,137.7,148.8,138.2,149z"/>
<path d="M138.1,158.7c0.2-0.4,0.3-0.6,0.5-0.6C138.4,157.8,137.6,158.2,138.1,158.7z"/>
<path d="M138.3,141.7c-0.2,0.6,0.5,1.3,0.7,0.6C138.7,141.9,138.6,142.6,138.3,141.7z"/>
<path d="M138.9,161.7c-0.1,0-0.6,0.9-0.3,1.1C138.6,162.3,138.8,162.1,138.9,161.7z"/>
<path d="M138.8,182.9c0.1,0.2,0.2,0.2,0.4,0.2C139,182.7,138.9,182.9,138.8,182.9z"/>
<path d="M139.3,172.2c0-0.2-0.1-0.2-0.2-0.4C138.9,172,139.2,172.6,139.3,172.2z"/>
<path d="M139.7,140.6c0.4,1.3,0.6,0,0.3-0.4c-0.3-0.2-0.7,0-0.8,0.4C139.4,140.4,139.7,140,139.7,140.6z"/>
<path d="M139.7,138.9c-0.2,0,0.1,0.4,0.3,0.2C139.9,138.9,139.8,138.9,139.7,138.9z"/>
<path d="M140.6,170c0.3-0.2-0.1-0.6-0.4-0.2C140.3,169.8,140.4,170,140.6,170z"/>
<path d="M140.8,169c0.2-0.9-0.4-0.6-0.5,0C140.4,169.4,140.6,168.8,140.8,169z"/>
<path d="M141.3,140.8c-0.1,0.2-0.2,0.4-0.3,0.6C143,139.6,138.8,140.2,141.3,140.8z"/>
<path d="M140.6,144.5c0.4,0,0-0.9,0.4-0.6C140.8,142.8,140.5,143.2,140.6,144.5z"/>
<path d="M140.9,139.6c0.3,0.4,0.6,0.6,0.9,0.2C141.5,139.3,141.3,139.3,140.9,139.6z"/>
<path d="M141.7,138.5c-0.1,0.2-0.8,0.4-0.6,0.9C141.2,139.1,141.9,138.9,141.7,138.5z"/>
<path d="M141.3,159.3c-0.1,0.2-0.1,0.2-0.2,0.2C141.2,160,141.8,159.3,141.3,159.3z"/>
<path d="M142.6,136.8c0.2-0.4-0.2-1.1-0.4-0.6C142.4,136.5,142.3,137.2,142.6,136.8z"/>
<path d="M142.7,175.4c-0.2-0.4-0.2,0-0.4,0C142.4,175.6,142.6,175.6,142.7,175.4z"/>
<path d="M142.9,143.6c0.1,0,0.7,0.4,0.7,0C143.6,143,142.7,143.2,142.9,143.6z"/>
<path d="M143.8,140.2c-1.3,0,0.7,1.5,1.1,1.5C146.2,141.5,143.4,141.1,143.8,140.2z"/>
<path d="M143.4,136.1c0.2,0.4,0.4,0.2,0.6,0C143.8,135.7,143.6,136.3,143.4,136.1z"/>
<path d="M144.4,142.6c-0.4-0.4-0.4,0-0.1,0.4C144.3,142.8,144.3,142.6,144.4,142.6z"/>
<path d="M143.9,179.3c0.3,0.2,0.3,0.4,0.5,0.4C144.1,179.5,144.1,179.3,143.9,179.3z"/>
<path d="M145.2,180.8c0.1-0.6,0.1-0.6-0.2-0.6C144.8,180.3,144.9,180.3,145.2,180.8z"/>
<path d="M145.3,177.6c-0.3,0.9,0.2,0.9,0.2,0C145.7,177.3,145.3,177.6,145.3,177.6z"/>
<path d="M146.1,182.3c-0.3-0.9-0.2,0.2-0.5,0.4C146,182.7,146,182.5,146.1,182.3z"/>
<path d="M146.5,177.8c-0.2-0.9-1.3,1.7-0.3,1.9c0.5,0.4,1.2-0.6,0.4-0.9C146.7,178.6,145.9,178.2,146.5,177.8z"/>
<path d="M146.6,181.9c1.2,0.6,0.3-2.1-0.4-1.7C145.9,180.3,146.5,182.3,146.6,181.9z"/>
<path d="M146.7,179.3c-0.1,0-0.1-0.2-0.2-0.2C146.8,179.1,146.7,178.4,146.7,179.3z"/>
<path d="M147.8,181.6c-0.1-0.6-0.2,0.4-0.4,0.4C147.5,182.3,147.7,181.9,147.8,181.6z"/>
<path d="M149,179.7c1.6,0.4-1.4-0.6,0-1.7C148,178,147.8,179.9,149,179.7z"/>
<path d="M148.4,182.1c0,0.2-0.2,0.6,0,0.9C148.4,182.7,148.6,182.5,148.4,182.1z"/>
<path d="M148.4,141.7c0.1,0.2,0.3,0.4,0.2,0.2C148.6,141.7,148.4,141.5,148.4,141.7z"/>
<path d="M150.1,142.1c0-0.2-1,0-1.2,0.6C149.1,142.8,149.8,142.8,150.1,142.1z"/>
<path d="M150.4,178.8c-0.1,0.2-0.3,0.2-0.4,0.2C149.4,179.7,150.7,179.3,150.4,178.8z"/>
<path d="M151,181.9c-0.2,0-0.3-0.4-0.5,0C150.7,182.3,150.8,182.1,151,181.9z"/>
<path d="M153.6,183.8c-0.5,1.7,0.5-0.4,0.3,0.6c0.7,0.6,0.8-1.5,1.5-0.2c0.1,0.6,0.3-0.4,0.1-0.4c-0.5,0.2-0.1-0.2-0.2-0.6
	c-0.5,0.9-1.3,0.9-1.1-0.9c-0.5,0.6-1.6,0-0.7-1.1c-0.4,1.9,1-0.4,1.3,0.6c0.8,0.9,0.8-1.5,0-1.1c-1.7,1.9-1.3-2.4-1.8,0.9
	c-0.8-3.6-0.3-0.4-1.7-1.7c-0.6-0.9,0.7-0.2-0.3,0.4c0.5,0.6,0.8,1.3,1.3,1.9c0.1-1.7,0.6-0.6,0.8,0.2
	C153.6,180.8,154.2,183.6,153.6,183.8z"/>
<path d="M151.9,178.4c-0.2,0.6,0.1,0.4,0.3,0.2C152,178.4,152,178.4,151.9,178.4z"/>
<path d="M153.2,144.5c0-0.4-0.9,0.4-0.7,0.6C152.8,144.7,153.2,145.4,153.2,144.5z"/>
<path d="M152.7,142.1c-0.2,0.4,0.1,0.4,0.2,0.9C153.2,142.6,152.9,142.6,152.7,142.1z"/>
<path d="M153.2,146.2c0,0.4-0.2,0.2,0,0.6C153.3,146.4,153.4,146.4,153.2,146.2z"/>
<path d="M153.7,144.9c0.1,0.2,0.4,0.6,0.5,0.2C154.1,145.1,153.7,144.3,153.7,144.9z"/>
<path d="M153.8,183.4c0.2,0,0.3,0.2,0.5,0.4C154,183.8,153.8,184,153.8,183.4z"/>
<path d="M154.4,147.5c-0.2,0.4,0.3,0.6,0.5,0.6C154.7,147.7,154.5,147.7,154.4,147.5z"/>
<path d="M156,158.2c-1,3,1.1-0.6,0.3,0.2c-0.5-0.6-0.4-0.9-0.9-0.9C153.6,158.2,154.9,157.6,156,158.2z"/>
<path d="M155.1,146.2c0.1,0.4,0.3-0.2,0.1-0.6C155.1,146,155.1,146.2,155.1,146.2z"/>
<path d="M156.3,156.7c-0.1-0.6-0.7-1.1-0.3-0.2C155.2,156.5,156,157.4,156.3,156.7z"/>
<path d="M156.5,146.4c-0.3-0.4,0.2-1.1,0.1-1.1c-0.8-1.1-0.8-0.9-0.5,0.4c-0.7,0.4-0.1,1.5-0.1,0.4
	C156.1,146.2,156.5,147.1,156.5,146.4z"/>
<path d="M156.3,135.9c0.4,0.6,0.2-0.6-0.2-0.6C155.8,134.8,155.9,135.9,156.3,135.9z"/>
<path d="M155.9,147.7c0.1,0,0.2,0,0.4,0C156.7,147.3,155.7,146.9,155.9,147.7z"/>
<path d="M156.5,179.3c-0.3,0.6-0.5,0.4-0.2,1.3C156.7,181.2,157,179.5,156.5,179.3z"/>
<path d="M157.4,144.1c-0.6-2.1-1.9,0-0.3,0.4C157,144.5,157.4,144.1,157.4,144.1z"/>
<path d="M156.9,146.9c-0.1-0.4-0.4,0-0.5,0C156.6,146.9,156.7,147.3,156.9,146.9z"/>
<path d="M156.5,155.7c0.3-0.2,0.2-1.5,0-1.7C156.5,154.6,156.6,155.2,156.5,155.7z"/>
<path d="M157.4,181.9c-0.4-0.2-0.7-0.2-0.9-0.2C156.7,182.5,157,182.5,157.4,181.9z"/>
<path d="M157.9,182.5c0.5-1.1-0.3-3.2-0.2-0.9c0.8,0.2-0.7,1.1,0.1,1.5C156.3,183.6,157.2,184.2,157.9,182.5z"/>
<path d="M158.1,158.2c-0.2,0-0.4-0.2-0.6,0C157.8,158.7,158,158.7,158.1,158.2z"/>
<path d="M159.2,145.6c1.2-0.6-1.3-1.7-1.7-0.2c-0.1,0.6,1.6,1.1,0.5-0.2C158.3,144.9,158.9,145.6,159.2,145.6z"/>
<path d="M157.5,143c0,0.6,0.8-0.2,0.5,0.6C158.7,144.3,158.1,142.6,157.5,143z"/>
<path d="M158.6,149.9c1.5-0.9-0.5-1.3-0.8-1.3c-0.2,1.3,0.5,0.9,1,0.6C158.7,149.4,158.7,149.6,158.6,149.9z"/>
<path d="M159.3,146.9c0.9-2.4-0.8,0-1.4,0.2c0.7-0.2,0.8,1.5,1.3,1.5C160.2,146.2,159.3,147.9,159.3,146.9z"/>
<path d="M158.2,155c-0.3,0,0.2,0.9,0.2,0.9C158.7,155.9,158.2,155,158.2,155z"/>
<path d="M159,182.5c0.2,0.2,0.4-1.3,0.9-0.6C160,181,158.6,181.9,159,182.5z"/>
<path d="M159.7,149.6c-0.2,0.4,0,0.2,0.2,0.2C159.8,149.6,159.7,149.6,159.7,149.6z"/>
<path d="M160.2,147.7c-0.2-0.9-0.7,1.1-0.2,0.9c0.2,0,0.1,0,0.1,0.4C162.2,146,160.1,149,160.2,147.7z"/>
<path d="M160.3,182.5c-0.4,0.6-0.8,0.4-0.1,0.9C160.5,183.6,160.4,182.7,160.3,182.5z"/>
<path d="M160.6,143.4c-0.1,0.2-0.2,0.2-0.4,0.2C160.1,144.5,161,143.8,160.6,143.4z"/>
<g>
	<path d="M91.2,79.9v23.2c0,2.1,0.9,2.9,2.5,2.9c1.5,0,2.5-0.8,2.5-2.9V79.9h4.5v22.9c0,4.8-2.4,7.6-7.1,7.6c-4.6,0-7.1-2.8-7.1-7.6
		V79.9H91.2z"/>
	<path d="M108,88.2V110h-4.3V79.9h5.9l4.9,18v-18h4.2V110h-4.9L108,88.2z"/>
	<path d="M122.1,79.9h7.5c4.7,0,7.1,2.6,7.1,7.4v15.2c0,4.8-2.3,7.4-7.1,7.4h-7.5V79.9z M126.9,84.2v21.5h2.7c1.5,0,2.4-0.8,2.4-2.9
		V87.1c0-2.1-0.9-2.9-2.4-2.9H126.9z"/>
	<path d="M144.4,92.6h6.5v4.3h-6.5v8.8h8.2v4.3h-12.9V79.9h12.9v4.3h-8.2V92.6z"/>
	<path d="M165.4,110c-0.3-0.8-0.4-1.2-0.4-3.7v-4.7c0-2.8-0.9-3.8-3.1-3.8h-1.6V110h-4.7V79.9h7.1c4.9,0,7,2.3,7,6.9v2.4
		c0,3.1-1,5.1-3.1,6.1c2.4,1,3.1,3.3,3.1,6.4v4.6c0,1.5,0,2.5,0.5,3.7H165.4z M160.2,84.2v9.2h1.8c1.8,0,2.8-0.8,2.8-3.2v-3
		c0-2.1-0.7-3.1-2.4-3.1H160.2z"/>
	<path d="M46.8,133.8v4c0,4.8-2.4,7.6-7.1,7.6s-7.1-2.8-7.1-7.6v-15.7c0-4.8,2.4-7.6,7.1-7.6s7.1,2.8,7.1,7.6v2.9h-4.5v-3.2
		c0-2.1-0.9-3-2.5-3c-1.5,0-2.5,0.8-2.5,3v16.3c0,2.2,0.9,2.9,2.5,2.9c1.5,0,2.5-0.8,2.5-2.9v-4.3H46.8z"/>
	<path d="M49.3,122.1c0-4.8,2.5-7.6,7.2-7.6c4.6,0,7.2,2.8,7.2,7.6v15.7c0,4.8-2.5,7.6-7.2,7.6c-4.6,0-7.2-2.8-7.2-7.6V122.1z
		 M54,138.1c0,2.2,0.9,3,2.5,3c1.5,0,2.5-0.8,2.5-3v-16.3c0-2.1-0.9-3-2.5-3c-1.5,0-2.5,0.8-2.5,3V138.1z"/>
	<path d="M70.9,123.2V145h-4.3v-30.1h5.9l4.9,18v-18h4.2V145h-4.9L70.9,123.2z"/>
	<path d="M91.5,114.6c4.6,0,7,2.8,7,7.6v0.9h-4.5v-1.2c0-2.1-0.9-3-2.4-3s-2.4,0.8-2.4,3c0,6.2,9.2,7.4,9.2,16
		c0,4.8-2.4,7.6-7.1,7.6c-4.6,0-7.1-2.8-7.1-7.6v-1.8h4.5v2.1c0,2.2,0.9,2.9,2.5,2.9c1.5,0,2.5-0.8,2.5-2.9c0-6.2-9.2-7.4-9.2-16
		C84.5,117.3,86.8,114.6,91.5,114.6z"/>
	<path d="M99.8,114.9h14.6v4.3h-4.9V145h-4.7v-25.8h-4.9V114.9z"/>
	<path d="M126.4,145c-0.3-0.8-0.4-1.2-0.4-3.7v-4.7c0-2.8-0.9-3.8-3.1-3.8h-1.6V145h-4.7v-30.1h7.1c4.9,0,7,2.3,7,6.9v2.4
		c0,3.1-1,5.1-3.1,6.1c2.4,1,3.1,3.3,3.1,6.4v4.6c0,1.5,0,2.5,0.5,3.7H126.4z M121.2,119.2v9.2h1.8c1.8,0,2.8-0.8,2.8-3.2v-3
		c0-2.1-0.7-3.1-2.4-3.1H121.2z"/>
	<path d="M138.3,114.9v23.2c0,2.2,0.9,2.9,2.5,2.9s2.5-0.8,2.5-2.9v-23.2h4.5v22.9c0,4.8-2.4,7.6-7.1,7.6c-4.6,0-7.1-2.8-7.1-7.6
		v-22.9H138.3z"/>
	<path d="M164.6,133.8v4c0,4.8-2.4,7.6-7.1,7.6s-7.1-2.8-7.1-7.6v-15.7c0-4.8,2.4-7.6,7.1-7.6s7.1,2.8,7.1,7.6v2.9h-4.5v-3.2
		c0-2.1-0.9-3-2.5-3s-2.5,0.8-2.5,3v16.3c0,2.2,0.9,2.9,2.5,2.9s2.5-0.8,2.5-2.9v-4.3H164.6z"/>
	<path d="M166.1,114.9h14.6v4.3h-4.9V145H171v-25.8h-4.9V114.9z"/>
	<path d="M182.8,114.9h4.7V145h-4.7V114.9z"/>
	<path d="M190.6,122.1c0-4.8,2.5-7.6,7.2-7.6c4.6,0,7.2,2.8,7.2,7.6v15.7c0,4.8-2.5,7.6-7.2,7.6c-4.6,0-7.2-2.8-7.2-7.6V122.1z
		 M195.3,138.1c0,2.2,0.9,3,2.5,3c1.5,0,2.5-0.8,2.5-3v-16.3c0-2.1-0.9-3-2.5-3c-1.5,0-2.5,0.8-2.5,3V138.1z"/>
	<path d="M212.2,123.2V145h-4.3v-30.1h5.9l4.9,18v-18h4.2V145h-4.9L212.2,123.2z"/>
</g>
</svg>
